<mxfile host="app.diagrams.net" agent="Mozilla/5.0 (Windows NT 10.0; Win64; x64) AppleWebKit/537.36 (KHTML, like Gecko) Chrome/138.0.0.0 Safari/537.36" version="28.0.7" pages="2">
  <diagram name="Page-1" id="dG3Pp9h3Y6wqt0aINJYJ">
    <mxGraphModel dx="1426" dy="890" grid="1" gridSize="10" guides="1" tooltips="1" connect="1" arrows="1" fold="1" page="1" pageScale="1" pageWidth="1100" pageHeight="850" math="0" shadow="0">
      <root>
        <mxCell id="0" />
        <mxCell id="1" parent="0" />
        <mxCell id="2umozgm-Ceqt5AvZt1u1-1" value="" style="shape=cylinder3;whiteSpace=wrap;html=1;boundedLbl=1;backgroundOutline=1;size=15;" vertex="1" parent="1">
          <mxGeometry x="770" y="80.5" width="170" height="210" as="geometry" />
        </mxCell>
        <mxCell id="2umozgm-Ceqt5AvZt1u1-2" value="" style="shape=mxgraph.cisco.misc.page_icon;html=1;pointerEvents=1;dashed=0;fillColor=#036897;strokeColor=#ffffff;strokeWidth=2;verticalLabelPosition=bottom;verticalAlign=top;align=center;outlineConnect=0;" vertex="1" parent="1">
          <mxGeometry x="800" y="130.5" width="48" height="69" as="geometry" />
        </mxCell>
        <mxCell id="2umozgm-Ceqt5AvZt1u1-4" value="" style="shape=mxgraph.cisco.misc.page_icon;html=1;pointerEvents=1;dashed=0;fillColor=#036897;strokeColor=#ffffff;strokeWidth=2;verticalLabelPosition=bottom;verticalAlign=top;align=center;outlineConnect=0;" vertex="1" parent="1">
          <mxGeometry x="870" y="210.5" width="48" height="69" as="geometry" />
        </mxCell>
        <mxCell id="2umozgm-Ceqt5AvZt1u1-5" value="" style="shape=mxgraph.cisco.misc.page_icon;html=1;pointerEvents=1;dashed=0;fillColor=#036897;strokeColor=#ffffff;strokeWidth=2;verticalLabelPosition=bottom;verticalAlign=top;align=center;outlineConnect=0;" vertex="1" parent="1">
          <mxGeometry x="790" y="210.5" width="48" height="69" as="geometry" />
        </mxCell>
        <mxCell id="2umozgm-Ceqt5AvZt1u1-6" value="" style="shape=mxgraph.cisco.misc.page_icon;html=1;pointerEvents=1;dashed=0;fillColor=#036897;strokeColor=#ffffff;strokeWidth=2;verticalLabelPosition=bottom;verticalAlign=top;align=center;outlineConnect=0;" vertex="1" parent="1">
          <mxGeometry x="870" y="130.5" width="48" height="69" as="geometry" />
        </mxCell>
        <mxCell id="F3tVMV32XgSYqewY5M-P-1" value="" style="whiteSpace=wrap;html=1;aspect=fixed;" vertex="1" parent="1">
          <mxGeometry x="410" y="50" width="230" height="230" as="geometry" />
        </mxCell>
        <mxCell id="F3tVMV32XgSYqewY5M-P-2" value="" style="endArrow=classic;startArrow=classic;html=1;rounded=0;fontSize=12;startSize=8;endSize=8;curved=1;entryX=0;entryY=0.5;entryDx=0;entryDy=0;entryPerimeter=0;exitX=1.004;exitY=0.58;exitDx=0;exitDy=0;exitPerimeter=0;" edge="1" parent="1" source="F3tVMV32XgSYqewY5M-P-1" target="2umozgm-Ceqt5AvZt1u1-1">
          <mxGeometry width="50" height="50" relative="1" as="geometry">
            <mxPoint x="440" y="290.5" as="sourcePoint" />
            <mxPoint x="490" y="240.5" as="targetPoint" />
          </mxGeometry>
        </mxCell>
        <mxCell id="F3tVMV32XgSYqewY5M-P-3" value="" style="endArrow=classic;html=1;rounded=0;fontSize=12;startSize=8;endSize=8;curved=1;entryX=0;entryY=0.5;entryDx=0;entryDy=0;" edge="1" parent="1" target="F3tVMV32XgSYqewY5M-P-1">
          <mxGeometry width="50" height="50" relative="1" as="geometry">
            <mxPoint x="120" y="170.5" as="sourcePoint" />
            <mxPoint x="490" y="240.5" as="targetPoint" />
          </mxGeometry>
        </mxCell>
        <mxCell id="F3tVMV32XgSYqewY5M-P-4" value="SQL Query" style="edgeLabel;html=1;align=center;verticalAlign=middle;resizable=0;points=[];fontSize=12;" vertex="1" connectable="0" parent="F3tVMV32XgSYqewY5M-P-3">
          <mxGeometry x="-0.5174" y="-1" relative="1" as="geometry">
            <mxPoint as="offset" />
          </mxGeometry>
        </mxCell>
        <mxCell id="F3tVMV32XgSYqewY5M-P-5" value="&lt;div style=&quot;text-align: left;&quot;&gt;&lt;span style=&quot;background-color: transparent; color: light-dark(rgb(0, 0, 0), rgb(255, 255, 255));&quot;&gt;B-Tree Index&lt;/span&gt;&lt;/div&gt;&lt;div&gt;&lt;br&gt;&lt;/div&gt;" style="text;strokeColor=none;fillColor=none;html=1;align=center;verticalAlign=middle;whiteSpace=wrap;rounded=0;fontSize=16;" vertex="1" parent="1">
          <mxGeometry x="10" y="279.5" width="320" height="130" as="geometry" />
        </mxCell>
        <mxCell id="F3tVMV32XgSYqewY5M-P-6" value="" style="rounded=1;whiteSpace=wrap;html=1;" vertex="1" parent="1">
          <mxGeometry x="410" y="370.5" width="200" height="60" as="geometry" />
        </mxCell>
        <mxCell id="F3tVMV32XgSYqewY5M-P-15" value="" style="rounded=1;whiteSpace=wrap;html=1;" vertex="1" parent="1">
          <mxGeometry x="550" y="380.5" width="50" height="40" as="geometry" />
        </mxCell>
        <mxCell id="F3tVMV32XgSYqewY5M-P-16" value="" style="rounded=1;whiteSpace=wrap;html=1;" vertex="1" parent="1">
          <mxGeometry x="480" y="380.5" width="50" height="40" as="geometry" />
        </mxCell>
        <mxCell id="F3tVMV32XgSYqewY5M-P-17" value="" style="rounded=1;whiteSpace=wrap;html=1;" vertex="1" parent="1">
          <mxGeometry x="420" y="380.5" width="50" height="40" as="geometry" />
        </mxCell>
        <mxCell id="F3tVMV32XgSYqewY5M-P-18" value="" style="rounded=1;whiteSpace=wrap;html=1;" vertex="1" parent="1">
          <mxGeometry x="50" y="510.5" width="200" height="60" as="geometry" />
        </mxCell>
        <mxCell id="F3tVMV32XgSYqewY5M-P-19" value="" style="rounded=1;whiteSpace=wrap;html=1;" vertex="1" parent="1">
          <mxGeometry x="190" y="520.5" width="50" height="40" as="geometry" />
        </mxCell>
        <mxCell id="F3tVMV32XgSYqewY5M-P-20" value="" style="rounded=1;whiteSpace=wrap;html=1;" vertex="1" parent="1">
          <mxGeometry x="120" y="520.5" width="50" height="40" as="geometry" />
        </mxCell>
        <mxCell id="F3tVMV32XgSYqewY5M-P-21" value="" style="rounded=1;whiteSpace=wrap;html=1;" vertex="1" parent="1">
          <mxGeometry x="60" y="520.5" width="50" height="40" as="geometry" />
        </mxCell>
        <mxCell id="F3tVMV32XgSYqewY5M-P-22" value="" style="rounded=1;whiteSpace=wrap;html=1;" vertex="1" parent="1">
          <mxGeometry x="425" y="520.5" width="200" height="60" as="geometry" />
        </mxCell>
        <mxCell id="F3tVMV32XgSYqewY5M-P-23" value="" style="rounded=1;whiteSpace=wrap;html=1;" vertex="1" parent="1">
          <mxGeometry x="565" y="530.5" width="50" height="40" as="geometry" />
        </mxCell>
        <mxCell id="F3tVMV32XgSYqewY5M-P-24" value="" style="rounded=1;whiteSpace=wrap;html=1;" vertex="1" parent="1">
          <mxGeometry x="495" y="530.5" width="50" height="40" as="geometry" />
        </mxCell>
        <mxCell id="F3tVMV32XgSYqewY5M-P-25" value="" style="rounded=1;whiteSpace=wrap;html=1;" vertex="1" parent="1">
          <mxGeometry x="435" y="530.5" width="50" height="40" as="geometry" />
        </mxCell>
        <mxCell id="F3tVMV32XgSYqewY5M-P-26" value="" style="rounded=1;whiteSpace=wrap;html=1;" vertex="1" parent="1">
          <mxGeometry x="724" y="530.5" width="200" height="60" as="geometry" />
        </mxCell>
        <mxCell id="F3tVMV32XgSYqewY5M-P-27" value="" style="rounded=1;whiteSpace=wrap;html=1;" vertex="1" parent="1">
          <mxGeometry x="864" y="540.5" width="50" height="40" as="geometry" />
        </mxCell>
        <mxCell id="F3tVMV32XgSYqewY5M-P-28" value="" style="rounded=1;whiteSpace=wrap;html=1;" vertex="1" parent="1">
          <mxGeometry x="794" y="540.5" width="50" height="40" as="geometry" />
        </mxCell>
        <mxCell id="F3tVMV32XgSYqewY5M-P-29" value="" style="rounded=1;whiteSpace=wrap;html=1;" vertex="1" parent="1">
          <mxGeometry x="734" y="540.5" width="50" height="40" as="geometry" />
        </mxCell>
        <mxCell id="F3tVMV32XgSYqewY5M-P-30" value="" style="endArrow=classic;html=1;rounded=0;fontSize=12;startSize=8;endSize=8;curved=1;exitX=0;exitY=1;exitDx=0;exitDy=0;entryX=0.5;entryY=0;entryDx=0;entryDy=0;" edge="1" parent="1" source="F3tVMV32XgSYqewY5M-P-6" target="F3tVMV32XgSYqewY5M-P-18">
          <mxGeometry width="50" height="50" relative="1" as="geometry">
            <mxPoint x="440" y="290.5" as="sourcePoint" />
            <mxPoint x="490" y="240.5" as="targetPoint" />
          </mxGeometry>
        </mxCell>
        <mxCell id="F3tVMV32XgSYqewY5M-P-31" value="" style="endArrow=classic;html=1;rounded=0;fontSize=12;startSize=8;endSize=8;curved=1;entryX=0.625;entryY=0.083;entryDx=0;entryDy=0;entryPerimeter=0;" edge="1" parent="1" target="F3tVMV32XgSYqewY5M-P-26">
          <mxGeometry width="50" height="50" relative="1" as="geometry">
            <mxPoint x="520" y="430.5" as="sourcePoint" />
            <mxPoint x="280" y="550.5" as="targetPoint" />
          </mxGeometry>
        </mxCell>
        <mxCell id="F3tVMV32XgSYqewY5M-P-32" value="" style="endArrow=classic;html=1;rounded=0;fontSize=12;startSize=8;endSize=8;curved=1;exitX=0.545;exitY=0.95;exitDx=0;exitDy=0;entryX=0.5;entryY=0;entryDx=0;entryDy=0;exitPerimeter=0;" edge="1" parent="1" source="F3tVMV32XgSYqewY5M-P-6" target="F3tVMV32XgSYqewY5M-P-22">
          <mxGeometry width="50" height="50" relative="1" as="geometry">
            <mxPoint x="540" y="470.5" as="sourcePoint" />
            <mxPoint x="280" y="550.5" as="targetPoint" />
          </mxGeometry>
        </mxCell>
        <mxCell id="F3tVMV32XgSYqewY5M-P-33" value="" style="shape=mxgraph.cisco.misc.page_icon;html=1;pointerEvents=1;dashed=0;fillColor=#036897;strokeColor=#ffffff;strokeWidth=2;verticalLabelPosition=bottom;verticalAlign=top;align=center;outlineConnect=0;" vertex="1" parent="1">
          <mxGeometry x="526" y="640" width="48" height="69" as="geometry" />
        </mxCell>
      </root>
    </mxGraphModel>
  </diagram>
  <diagram id="m8mgiEtrDWshmw4CuS87" name="Page-2">
    <mxGraphModel dx="1426" dy="890" grid="0" gridSize="10" guides="1" tooltips="1" connect="1" arrows="1" fold="1" page="0" pageScale="1" pageWidth="1100" pageHeight="850" math="0" shadow="0">
      <root>
        <mxCell id="0" />
        <mxCell id="1" parent="0" />
      </root>
    </mxGraphModel>
  </diagram>
</mxfile>
